<svg width="24" height="24" viewBox="0 0 24 24" fill="none" xmlns="http://www.w3.org/2000/svg">
<path d="M11.5155 0C8.39046 0 7.9975 0.0143918 6.76966 0.0690918C5.54182 0.126672 4.70551 0.319543 3.97284 0.604553C3.20432 0.893623 2.5082 1.34707 1.93316 1.93317C1.34742 2.50851 0.894041 3.20452 0.604561 3.97284C0.319551 4.70407 0.125224 5.54183 0.0690842 6.76535C0.0143842 7.99607 0 8.38758 0 11.5169C0 14.6434 0.0143842 15.0349 0.0690842 16.2627C0.126664 17.4891 0.319551 18.3254 0.604561 19.0581C0.899641 19.8152 1.29261 20.4572 1.93316 21.0978C2.57227 21.7383 3.21426 22.1327 3.9714 22.4264C4.70551 22.7114 5.54038 22.9057 6.76678 22.9619C7.99606 23.0166 8.38758 23.0309 11.5155 23.0309C14.6434 23.0309 15.0334 23.0166 16.2627 22.9619C17.4877 22.9043 18.3269 22.7114 19.0595 22.4264C19.8276 22.1372 20.5232 21.6837 21.0978 21.0978C21.7383 20.4572 22.1313 19.8153 22.4264 19.0581C22.71 18.3254 22.9043 17.4891 22.9618 16.2627C23.0165 15.0349 23.0309 14.6434 23.0309 11.5155C23.0309 8.38758 23.0165 7.99606 22.9618 6.76678C22.9043 5.54182 22.71 4.70407 22.4264 3.97284C22.1369 3.20451 21.6835 2.50848 21.0978 1.93317C20.5229 1.34685 19.8267 0.893373 19.0581 0.604553C18.324 0.319543 17.4862 0.125232 16.2613 0.0690918C15.032 0.0143918 14.6419 0 11.5126 0H11.5155ZM10.4834 2.07565H11.5169C14.5915 2.07565 14.9557 2.08575 16.1692 2.14188C17.2919 2.19226 17.9022 2.38083 18.3082 2.53772C18.8451 2.74644 19.2294 2.99689 19.6324 3.39993C20.0355 3.80297 20.2845 4.18586 20.4932 4.72421C20.6516 5.12869 20.8387 5.739 20.8891 6.86176C20.9452 8.0752 20.9567 8.43938 20.9567 11.5126C20.9567 14.5858 20.9452 14.9514 20.8891 16.1648C20.8387 17.2876 20.6501 17.8965 20.4932 18.3024C20.3086 18.8024 20.0139 19.2545 19.631 19.6252C19.228 20.0283 18.8451 20.2773 18.3067 20.486C17.9037 20.6443 17.2934 20.8315 16.1692 20.8833C14.9557 20.938 14.5915 20.9509 11.5169 20.9509C8.44228 20.9509 8.07666 20.938 6.86322 20.8833C5.74046 20.8315 5.13157 20.6443 4.72565 20.486C4.22545 20.3016 3.77293 20.0075 3.40137 19.6252C3.01812 19.2539 2.72301 18.8014 2.53772 18.3009C2.38082 17.8965 2.19226 17.2862 2.14188 16.1634C2.08718 14.95 2.07567 14.5858 2.07567 11.5097C2.07567 8.43507 2.08719 8.07233 2.14188 6.85889C2.1937 5.73613 2.38082 5.1258 2.53915 4.71988C2.74787 4.18297 2.99833 3.79864 3.40137 3.3956C3.80441 2.99256 4.1873 2.74354 4.72565 2.53482C5.13157 2.37648 5.74046 2.18936 6.86322 2.13754C7.92552 2.0886 8.3372 2.07421 10.4834 2.07278L10.4834 2.07565ZM17.6633 3.98721C16.9001 3.98721 16.2814 4.6059 16.2814 5.36908C16.2814 6.13226 16.9001 6.75095 17.6633 6.75095C18.4265 6.75095 19.0451 6.13226 19.0451 5.36908C19.0451 4.6059 18.4265 3.98721 17.6633 3.98721ZM11.5169 5.60226C8.25075 5.5513 5.56169 8.15776 5.51073 11.4239C5.45977 14.6901 8.0662 17.3791 11.3324 17.4301C11.3939 17.431 11.4554 17.431 11.5169 17.4301C14.7831 17.3791 17.3895 14.69 17.3386 11.4239C17.2887 8.22957 14.7112 5.65211 11.5169 5.60226ZM11.5169 7.67648C13.6371 7.67559 15.3566 9.39361 15.3575 11.5138C15.3584 13.634 13.6404 15.3535 11.5201 15.3544H11.5169C9.39671 15.3544 7.67794 13.6357 7.67794 11.5154C7.67794 9.39523 9.3967 7.67648 11.5169 7.67648Z" fill="white"/>
</svg>
