<svg width="82" height="86" viewBox="0 0 82 86" fill="none" xmlns="http://www.w3.org/2000/svg">
<path d="M70.9398 85.1614H11.0603C5.21781 85.1614 0.4646 82.8683 0.4646 80.0497V5.53234C0.4646 2.71379 5.2178 0.420654 11.0603 0.420654H70.9398C76.7822 0.420654 81.5355 2.71379 81.5355 5.53234V80.0497C81.5355 82.8682 76.7822 85.1614 70.9398 85.1614Z" fill="white"/>
<path d="M40.9101 33.1189L40.8957 33.1327C40.7647 32.9904 40.6302 32.8501 40.4884 32.714C36.762 29.1363 30.7203 29.1364 26.994 32.714C23.2677 36.2916 23.2676 42.0922 26.994 45.67C27.1358 45.8061 27.2819 45.9353 27.4301 46.061L27.4157 46.0748L40.9101 59.0308L54.4045 46.0748C58.1308 42.4972 58.1308 36.6965 54.4045 33.1189C50.6781 29.5412 44.6364 29.5413 40.9101 33.1189Z" fill="#006916"/>
</svg>
