<svg width="85" height="84" viewBox="0 0 85 84" fill="none" xmlns="http://www.w3.org/2000/svg">
<path d="M80.7633 83.9693H4.23749C3.2712 83.968 2.3448 83.4984 1.66149 82.6637C0.978179 81.8289 0.593752 80.6971 0.592529 79.5165V5.26818C0.593606 4.08747 0.97797 2.95549 1.66129 2.12059C2.34462 1.28569 3.2711 0.816049 4.23749 0.814697H80.7633C81.7297 0.816049 82.6561 1.28567 83.3395 2.12054C84.0228 2.95542 84.4072 4.08736 84.4083 5.26804V79.5165C84.407 80.6971 84.0226 81.8289 83.3393 82.6637C82.656 83.4984 81.7296 83.968 80.7633 83.9693Z" fill="white"/>
<path d="M52.9681 74.708C52.0973 70.8362 51.6689 66.9083 51.6034 62.9772C51.538 59.0742 51.8275 55.1713 52.3829 51.2932C52.9462 47.3653 53.7892 43.4654 54.8147 39.5968C55.8402 35.7312 57.0481 31.8984 58.3513 28.0858C59.6544 24.2732 61.0568 20.4747 62.4671 16.6824C62.6396 16.2179 62.8122 15.7534 62.9867 15.2889C63.0938 14.999 62.5206 14.8758 62.4135 15.1642C60.9953 18.9752 59.5751 22.7846 58.2422 26.6159C56.9033 30.4612 55.6517 34.3268 54.5787 38.2235C53.5175 42.072 52.6309 45.9516 52.0061 49.8592C51.3812 53.7669 51.0143 57.7088 51.0004 61.6523C50.9865 65.5958 51.3217 69.4848 52.0834 73.3535C52.1806 73.8476 52.2857 74.3386 52.3948 74.8311C52.4623 75.1273 53.0355 75.001 52.9681 74.7064L52.9681 74.708Z" fill="#F2F2F2"/>
<path d="M61.9504 16.7529C61.5816 15.3789 61.9146 13.963 61.9884 12.5626C62.0621 11.1622 61.8092 9.64369 60.5151 8.61788C59.4845 7.79879 57.9691 7.43198 56.5233 7.09782C56.1502 7.01078 55.7139 6.93151 55.3915 7.09471C55.0585 7.26412 55.0163 7.60917 55.01 7.90759C54.9636 9.79135 55.0437 11.728 56.0153 13.4718C56.987 15.2157 59.0229 16.7467 61.5542 17" fill="#F2F2F2"/>
<path d="M56.9504 30.7529C56.5816 29.3789 56.9146 27.963 56.9884 26.5626C57.0621 25.1622 56.8092 23.6437 55.5151 22.6179C54.4845 21.7988 52.9691 21.432 51.5233 21.0978C51.1502 21.0108 50.7139 20.9315 50.3915 21.0947C50.0585 21.2641 50.0163 21.6092 50.01 21.9076C49.9636 23.7913 50.0437 25.728 51.0153 27.4718C51.987 29.2157 54.0229 30.7467 56.5542 31" fill="#F2F2F2"/>
<path d="M62.5667 16C64.0348 15.1606 65.7896 14.839 67.4359 14.3281C69.0823 13.8173 70.7596 13.0054 71.513 11.607C72.1154 10.4925 72.0282 9.19384 71.9294 7.95886C71.9043 7.64065 71.85 7.27601 71.5518 7.09884C71.2419 6.9148 70.8293 7.02316 70.4807 7.13841C68.2804 7.86942 66.0646 8.71567 64.3699 10.1605C62.6751 11.6053 61.5885 13.7743 62.1483 15.7988" fill="#F2F2F2"/>
<path d="M58.5667 26C60.0348 25.2539 61.7896 24.968 63.4359 24.5139C65.0823 24.0598 66.7596 23.3382 67.513 22.0951C68.1154 21.1044 68.0282 19.9501 67.9294 18.8523C67.9043 18.5695 67.85 18.2453 67.5518 18.0879C67.2419 17.9243 66.8293 18.0206 66.4807 18.123C64.2804 18.7728 62.0646 19.525 60.3699 20.8093C58.6751 22.0936 57.5885 24.0216 58.1483 25.8211" fill="#F2F2F2"/>
<path d="M37.4192 29.473L36 22.8956L45.5808 20L47 30L37.4192 29.473Z" fill="#FFB6B6"/>
<path d="M30 42.0832C30 42.0832 29.8826 60.7884 21.1918 57.6437C16.6712 56.0085 10 49.1126 10 49.1126L12.7573 46.9936L20.2818 52.0422L21.6986 42L30 42.0801L30 42.0832Z" fill="#FFB6B6"/>
<path d="M33 32.2243C33 32.2243 27.4808 30.9607 24.5009 34.4315C21.5209 37.9022 20 50.8144 20 50.8144L27.8765 54L33 32.2243Z" fill="#E6E6E6"/>
<path d="M64.58 42L68.206 53.0019L77 73.9149L72.4204 76L60.9093 55.1898L58 44.0866L64.58 42Z" fill="#FFB6B6"/>
<path d="M47.0102 26L36.3917 26.1473L35.5158 28.6091L27 32.423L27.8859 56.1583L54.2437 58L58.0408 41.8465L59 32.6763L47.902 28.9928L47.0102 26Z" fill="#E6E6E6"/>
<path d="M52 34.0746C52 34.0746 56.9557 30.3028 60.7207 32.9307C64.4857 35.5586 69 52.967 69 52.967L61.0327 56L52 34.0746Z" fill="#E6E6E6"/>
<path d="M52.9063 36.3142C52.9063 36.3142 48.6227 36.1571 45.1179 36.9425C41.613 37.728 31.6827 36 31.6827 36C34.0757 42.5741 32.4849 49.4467 28.47 56.5C23.1699 61.7483 29.1223 71.7061 20 77H58L56.6059 63.4904L54.464 58.4636C54.464 58.4636 55.6323 57.5211 55.2429 57.2069C54.8535 56.8927 49.9857 41.6552 52.9063 36.3142Z" fill="#006916"/>
<path d="M34.5263 28.4783L32 38.2029L35.5789 39L34.7368 35.4928L36 28L34.5263 28.4783Z" fill="#3F3D56"/>
<path d="M48 28L49.2731 41L51 40.9202L49.875 28.638L48 28Z" fill="#3F3D56"/>
<path d="M55.424 58.6148C55.424 58.6148 44.7 60.752 35.7 60.0151L27.37 56L27 56.6987C27 56.6987 34.224 63.3728 39.612 62.9836C45 62.5945 56 60.2362 56 59.6466C56 59.057 55.424 58.6148 55.424 58.6148Z" fill="#3F3D56"/>
<path d="M78.1987 79.2901C79.7458 78.6922 80.0465 76.6748 78.8704 74.7842C77.6942 72.8935 75.4866 71.8456 73.9395 72.4435C72.3924 73.0414 72.0916 75.0588 73.2678 76.9494C74.4439 78.84 76.6516 79.888 78.1987 79.2901Z" fill="#FFB6B6"/>
<path d="M55.1509 60.0437C56.2151 61.2526 56.2241 63.0424 57.6371 64.0354C58.2231 64.4476 59.0662 64.6666 59.7871 64.4265C60.5007 64.1896 60.9052 63.5924 60.9861 62.9288C61.0724 62.2229 60.747 61.5512 60.2796 60.9995C59.7745 60.4039 59.1255 59.8409 58.4227 59.4385C57.7719 59.0653 56.9791 58.8706 56.2277 59.0961C55.4691 59.3233 55.0197 59.8766 55.0017 60.597C54.9873 61.1001 55.0664 61.6112 55.1078 62.111L55.2318 63.6363L55.4871 66.7663C55.5123 67.0763 56.0516 67.0795 56.0264 66.7663L55.6273 61.8708C55.595 61.483 55.5464 61.0936 55.541 60.7058C55.5356 60.391 55.595 60.0827 55.8466 59.8522C56.2888 59.4482 56.9899 59.4125 57.5544 59.5894C58.2555 59.8084 58.8343 60.3066 59.3466 60.7739C59.8446 61.2299 60.3336 61.7783 60.4414 62.4306C60.5277 62.9499 60.3623 63.5746 59.8392 63.8683C59.2658 64.1896 58.5018 64.0176 57.993 63.6719C57.3261 63.2192 56.9755 62.4696 56.6861 61.7881C56.3751 61.0546 56.0803 60.3196 55.5338 59.6997C55.3181 59.4547 54.9388 59.8003 55.1527 60.0437L55.1509 60.0437Z" fill="#3F3D56"/>
<path d="M54.4642 59.6977C53.9825 60.2463 53.6931 60.8825 53.4199 61.5317C53.1557 62.1598 52.8879 62.8235 52.3918 63.338C51.9604 63.7859 51.3097 64.1154 50.632 64.0229C49.9796 63.9336 49.5877 63.411 49.5428 62.843C49.4925 62.2133 49.8196 61.6388 50.2564 61.1649C50.7291 60.652 51.3043 60.1473 51.9424 59.8049C52.4978 59.5062 53.1719 59.3602 53.783 59.6182C54.0472 59.7302 54.2737 59.9152 54.3797 60.1668C54.5235 60.5108 54.4516 60.9101 54.4229 61.2671C54.2737 63.0994 54.1245 64.9334 53.9753 66.7657C53.9502 67.0789 54.4894 67.0773 54.5146 66.7657C54.6655 64.9188 54.8147 63.0735 54.9657 61.2266C54.9981 60.8208 55.0502 60.3924 54.8866 60.0029C54.7608 59.7042 54.5307 59.4608 54.2341 59.2888C53.605 58.922 52.8052 58.9268 52.1311 59.1784C51.36 59.4657 50.7111 60.0077 50.1449 60.5482C49.5913 61.0789 49.1114 61.7086 49.0161 62.4486C48.9352 63.0816 49.1563 63.7811 49.7279 64.1852C50.3499 64.625 51.1893 64.5909 51.8777 64.3037C53.7363 63.5279 53.7003 61.3434 54.8471 60.0418C55.061 59.7984 54.6817 59.4527 54.466 59.6977L54.4642 59.6977Z" fill="#3F3D56"/>
<path d="M76.998 68.0016C76.998 68.0016 72.5281 71.4595 65 68.0016L66.1771 79.5262C66.1771 79.5262 66.2836 79.5536 66.4729 79.597C66.6089 80.0011 66.9836 80.3343 67.4923 80.4647C69.1308 80.8881 72.2816 81.4644 74.4111 80.3697C74.8547 80.1411 75.117 79.7371 75.117 79.3073V79.2735C75.2826 79.1753 75.4404 79.069 75.5882 78.9483L77 68L76.998 68.0016Z" fill="#3F3D56"/>
<path d="M71 70C74.3137 70 77 69.3284 77 68.5C77 67.6716 74.3137 67 71 67C67.6863 67 65 67.6716 65 68.5C65 69.3284 67.6863 70 71 70Z" fill="#006916"/>
<path d="M39.5 25C44.7467 25 49 21.6421 49 17.5C49 13.3579 44.7467 10 39.5 10C34.2533 10 30 13.3579 30 17.5C30 21.6421 34.2533 25 39.5 25Z" fill="#FFB6B6"/>
<path d="M36.6197 7.81466C38.5583 7.46615 39.9925 5.84078 41.5968 6.01269C45.0803 6.38465 48.089 8.65392 48.455 8.98055C49.9782 10.3418 50.4351 11.7312 50.9593 13.3331C51.5152 15.0288 50.9435 17.545 50.3956 19.2892C49.5944 21.8413 47.367 22.3492 47.64 24.0371C47.8319 25.2186 49.0386 25.6875 50.3956 26.8065C52.9632 28.9257 53.6753 31.4013 54.4033 33.93C56.1362 39.9532 53.6417 46.0265 52.6507 45.9999C52.441 45.9937 52.261 45.5998 51.899 44.8121C50.7932 42.3991 51.3372 41.6614 50.6468 40.855C49.4144 39.4125 46.7775 40.7253 43.8855 39.2718C41.6066 38.1262 40.8312 36.0992 40.3802 34.9193C40.121 34.241 39.0252 31.3778 40.6314 28.5881C42.119 26.0047 44.2831 25.8891 45.8636 22.8478C46.1959 22.207 47.2958 20.5441 46.1406 19.2891C45.555 18.6531 45.6717 22.2601 44.7974 21.6694C42.6689 20.2347 43.6145 14.3755 41.6324 12.7595C40.6848 11.9859 39.2487 11.6843 38.1271 11.7702C35.4605 11.9734 30.7229 14.0239 30.3055 16.2822C29.6349 19.9159 31.158 21.5022 34.871 24.2356C35.2726 24.531 33.7554 24.3731 33.1184 24.2356C29.8782 23.5386 28.6122 20.2269 28.3609 19.4876C27.6211 17.3184 28.1789 15.5289 28.6122 14.1458C29.1641 12.3766 29.7575 10.4731 31.8682 9.19935C33.1164 8.44606 34.3943 8.21632 36.6257 7.81466L36.6197 7.81466Z" fill="#2F2E41"/>
</svg>
