<svg width="85" height="84" viewBox="0 0 85 84" fill="none" xmlns="http://www.w3.org/2000/svg">
<path d="M80.7633 83.9693H4.23749C3.2712 83.968 2.3448 83.4984 1.66149 82.6636C0.978179 81.8289 0.593752 80.6971 0.592529 79.5165V5.26818C0.593606 4.08747 0.97797 2.95549 1.66129 2.12059C2.34462 1.28569 3.2711 0.816049 4.23749 0.814697H80.7633C81.7297 0.816049 82.6561 1.28567 83.3395 2.12054C84.0228 2.95542 84.4072 4.08736 84.4083 5.26804V79.5165C84.407 80.6971 84.0226 81.8289 83.3393 82.6636C82.656 83.4984 81.7296 83.968 80.7633 83.9693Z" fill="white"/>
<path d="M24.2117 48.8292L26.5069 46.0249H34.0384V66.2552L31.6251 69.2038L24.2117 48.8292Z" fill="#E6E6E6"/>
<path d="M36.7906 38.7607L40.6142 36.0054H46.6421V65.6733L44.4945 69.275L36.7906 38.7607Z" fill="#E6E6E6"/>
<path d="M49.7219 29.7653L51.7069 27.3401H59.3879V65.8112L57.6253 69.5059L49.7219 29.7653Z" fill="#E6E6E6"/>
<path d="M32.7579 46.6936H24.5898V69.0482H32.7579V46.6936Z" fill="#006916"/>
<path d="M45.3368 36.9131H37.1687V69.2473H45.3368V36.9131Z" fill="#006916"/>
<path d="M58.079 28.1313H49.9109V69.2477H58.079V28.1313Z" fill="#006916"/>
<path d="M23.7102 38.0565L51.6394 19.6548L49.5192 15.2776L61.2903 15.7242L54.5639 26.3544L52.4436 21.531L24.2951 39.403L23.7102 38.0565Z" fill="#006916"/>
</svg>
